<?xml version="1.0" encoding="UTF-8" standalone="no"?>
<svg width="1440px" height="623px" viewBox="0 0 1440 623" version="1.1" xmlns="http://www.w3.org/2000/svg" xmlns:xlink="http://www.w3.org/1999/xlink" xmlns:sketch="http://www.bohemiancoding.com/sketch/ns">
    <!-- Generator: Sketch 3.4 (15575) - http://www.bohemiancoding.com/sketch -->
    <title>Group</title>
    <desc>Created with Sketch.</desc>
    <defs></defs>
    <g id="c2-v5" stroke="none" stroke-width="1" fill="none" fill-rule="evenodd" sketch:type="MSPage">
        <g id="home" sketch:type="MSArtboardGroup" transform="translate(0.000000, -96.000000)" stroke="#238DC7" stroke-width="2">
            <g id="Group" sketch:type="MSLayerGroup" transform="translate(0.000000, 96.000000)">
                <rect id="Rectangle-29" sketch:type="MSShapeGroup" x="1143.29963" y="227.576353" width="43.0284802" height="43.8547374" rx="6"></rect>
                <rect id="Rectangle-29" opacity="0.495335821" sketch:type="MSShapeGroup" x="384.240542" y="420.283566" width="26.891008" height="27.4073843" rx="6"></rect>
                <rect id="Rectangle-29" sketch:type="MSShapeGroup" x="165.578824" y="292.685952" width="43.0284802" height="43.8547374" rx="6"></rect>
                <rect id="Rectangle-29" opacity="0.748250933" sketch:type="MSShapeGroup" x="437.195577" y="583.222367" width="34.1145594" height="34.7696464" rx="6"></rect>
                <rect id="Rectangle-29" sketch:type="MSShapeGroup" x="1062.96591" y="470.476117" width="43.0284802" height="43.8547374" rx="6"></rect>
                <rect id="Rectangle-29" sketch:type="MSShapeGroup" x="376.112676" y="78.2310873" width="43.0284802" height="43.8547374" rx="6"></rect>
                <rect id="Rectangle-29" opacity="0.509211754" sketch:type="MSShapeGroup" x="1000.4783" y="183.551431" width="28.3974861" height="28.9427906" rx="6"></rect>
                <rect id="Rectangle-29" sketch:type="MSShapeGroup" x="204.578824" y="507.685952" width="43.0284802" height="43.8547374" rx="6"></rect>
                <rect id="Rectangle-29" opacity="0.748250933" sketch:type="MSShapeGroup" x="1237.05955" y="359.981055" width="30.2722447" height="30.8535495" rx="6"></rect>
                <rect id="Rectangle-29" opacity="0.748250933" sketch:type="MSShapeGroup" x="1237.45828" y="569.172071" width="32.198486" height="32.8167794" rx="6"></rect>
                <rect id="Rectangle-29" sketch:type="MSShapeGroup" x="797.864664" y="563.269286" width="43.0284802" height="43.8547374" rx="6"></rect>
                <rect id="Rectangle-29" opacity="0.748250933" sketch:type="MSShapeGroup" x="2.94203892" y="40.9985336" width="30.2722447" height="30.8535495" rx="6"></rect>
                <rect id="Rectangle-29" opacity="0.748250933" sketch:type="MSShapeGroup" x="21.335877" y="437.399934" width="32.198486" height="32.8167794" rx="6"></rect>
                <rect id="Rectangle-29" sketch:type="MSShapeGroup" x="1395.01192" y="272.608331" width="43.0284802" height="43.8547374" rx="6"></rect>
                <rect id="Rectangle-29" opacity="0.748250933" sketch:type="MSShapeGroup" x="1306.4408" y="24.9814922" width="32.198486" height="32.8167794" rx="6"></rect>
                <rect id="Rectangle-29" opacity="0.748250933" sketch:type="MSShapeGroup" x="868.863371" y="3.81904054" width="30.2722447" height="30.8535495" rx="6"></rect>
                <rect id="Rectangle-29" opacity="0.495335821" sketch:type="MSShapeGroup" x="161.810789" y="139.79829" width="26.891008" height="27.4073843" rx="6"></rect>
            </g>
        </g>
    </g>
</svg>