<?xml version="1.0" encoding="UTF-8" standalone="no"?>
<svg width="128px" height="128px" viewBox="0 0 128 128" version="1.1" xmlns="http://www.w3.org/2000/svg" xmlns:xlink="http://www.w3.org/1999/xlink">
    <title>logo</title>
    <defs></defs>
    <g id="brand" stroke="none" stroke-width="1" fill="none" fill-rule="evenodd">
        <g id="logo">
            <g transform="translate(1.000000, 1.000000)">
                <path d="M12,44.1231293 L4.8164437,51.3066856 C-1.60802622,57.7311556 -1.60293574,68.1339355 4.8164437,74.553315 L12,81.7368713 L12,97.3706988 C12,106.561648 19.4451917,114 28.6293012,114 L44.2631287,114 L51.3066856,121.043557 C57.7311556,127.468027 68.1339355,127.462936 74.553315,121.043557 L81.5968719,114 L97.3706988,114 C106.561648,114 114,106.554808 114,97.3706988 L114,81.5968719 L121.043557,74.553315 C127.468027,68.128845 127.462936,57.7260651 121.043557,51.3066856 L114,44.2631287 L114,28.6293012 C114,19.4383521 106.554808,12 97.3706988,12 L81.7368713,12 L74.553315,4.8164437 C68.128845,-1.60802622 57.7260651,-1.60293574 51.3066856,4.8164437 L44.1231293,12 L28.6293012,12 C19.4383521,12 12,19.4451917 12,28.6293012 L12,44.1231293 Z" id="outline" fill="#FFFFFF"></path>
                <path d="M17,63 L17,31.9989775 C17,23.715271 23.7091019,17 31.9989775,17 L63,17 L17,63 Z" id="tr" fill="#22B0FF"></path>
                <path d="M17,108 L17,76.9989775 C17,68.715271 23.7091019,62 31.9989775,62 L63,62 L17,108 Z" id="bl" fill="#FB3640" transform="translate(40.000000, 85.579684) scale(1, -1) translate(-40.000000, -85.579684) "></path>
                <path d="M63,108 L63,76.9989775 C63,68.715271 69.7091019,62 77.9989775,62 L109,62 L63,108 Z" id="br" fill="#22B0FF" transform="translate(86.000000, 85.579684) scale(-1, -1) translate(-86.000000, -85.579684) "></path>
                <path d="M63,63 L63,31.9989775 C63,23.715271 69.7091019,17 77.9989775,17 L109,17 L63,63 Z" id="tr" fill="#FB3640" transform="translate(86.000000, 40.579684) scale(-1, 1) translate(-86.000000, -40.579684) "></path>
                <path d="M9.96745024,73.6070605 C4.10933246,67.7489428 4.10468704,58.2557027 9.96745024,52.3929395 L52.3929395,9.96745024 C58.2510572,4.10933246 67.7442973,4.10468704 73.6070605,9.96745024 L116.03255,52.3929395 C121.890668,58.2510572 121.895313,67.7442973 116.03255,73.6070605 L73.6070605,116.03255 C67.7489428,121.890668 58.2557027,121.895313 52.3929395,116.03255 L9.96745024,73.6070605 L9.96745024,73.6070605 Z" id="main" fill="#222222"></path>
                <path d="M78.9927018,63 L120.42788,63 C120.428018,66.8378396 118.963488,70.6761224 116.03255,73.6070605 L73.6070605,116.03255 C67.7489428,121.890668 58.2557027,121.895313 52.3929395,116.03255 L9.96745024,73.6070605 C7.03794824,70.6775585 5.57225712,66.839001 5.57211971,63 L47.0073047,63 C47.0024453,63.1712748 47,63.3433282 47,63.516129 C47,71.836556 54.163444,79 63.516129,79 C71.836556,79 79,71.836556 79,63.516129 C79,63.3433282 78.9975547,63.1712748 78.9927018,63 Z" id="highlight" fill-opacity="0.15" fill="#FFFFFF"></path>
                <circle id="pupil" fill="#FFFFFF" cx="63" cy="63" r="16"></circle>
            </g>
        </g>
    </g>
</svg>