<?xml version="1.0" encoding="UTF-8"?>
<svg width="308px" height="100px" viewBox="0 0 308 100" version="1.1" xmlns="http://www.w3.org/2000/svg" xmlns:xlink="http://www.w3.org/1999/xlink">
    <!-- Generator: Sketch 54.1 (76490) - https://sketchapp.com -->
    <title>Group</title>
    <desc>Created with Sketch.</desc>
    <g id="sandbox" stroke="none" stroke-width="1" fill="none" fill-rule="evenodd">
        <g id="Social" transform="translate(-26.000000, -130.000000)">
            <g id="Group" transform="translate(26.000000, 130.000000)">
                <polygon id="Path" fill="#ED2E2E" points="290.888889 0 290.888889 74.268753 0 100 -1.70205555e-12 25.731247"></polygon>
                <path d="M23.3961873,44.2857149 L31.0280654,64.7868005 L38.7098252,42.9055766 L44.9949013,42.3391355 L31.0280654,80.4347826 L17.1111111,44.852156 L23.3961873,44.2857149 Z M130.674788,34.1042058 C136.547331,33.5749442 141.097665,37.1475124 141.431231,42.9562434 L141.449205,43.4454406 L135.662944,43.9669261 C135.563181,41.0002353 133.318511,39.8686094 130.674788,40.1068743 C127.931303,40.3541304 125.58687,42.2071774 125.58687,45.5419932 C125.58687,48.5176751 128.080948,49.8833475 130.674788,49.6495782 C130.924196,49.6271003 133.368393,49.4068177 135.86247,50.3620512 C139.553706,51.7737447 141.548968,55.1852623 141.548968,59.4435656 C141.548968,66.3184168 136.311404,70.5357058 130.674788,71.0437045 C124.802246,71.4232114 120.110246,68.4421924 119.769024,62.0984695 L119.750728,61.5620418 L125.58687,61.0360608 C125.686633,64.0027515 128.080948,65.2748053 130.674788,65.041036 C133.368393,64.7982755 135.762707,62.7868183 135.762707,59.9650511 C135.762707,56.9380644 133.019222,55.3383455 130.674788,55.4470273 C130.375499,55.4740007 127.981184,55.6897878 125.437225,54.7390498 C121.795871,53.3228608 119.750728,50.3262776 119.750728,46.0679743 C119.750728,39.244428 125.038173,34.6122045 130.674788,34.1042058 Z M166.168287,30.9053619 C170.786866,30.4891135 174.950945,31.9369513 178.053149,34.6789079 L178.489032,35.079358 L174.398744,39.6549928 C172.303719,37.6890024 169.360707,36.6203143 166.168287,36.9080305 C158.985343,37.5553917 154.595766,43.1840971 154.595766,50.4180823 C154.595766,58.1138112 159.733566,62.42212 166.168287,61.8421921 C169.161181,61.5724583 171.934868,60.1500841 173.996136,58.0422594 L174.398744,57.6116936 L178.489032,61.5013606 C175.346494,65.0167873 171.006798,67.4087909 166.168287,67.8448607 C156.541147,68.7125046 148.659861,62.2401235 148.659861,50.9530544 C148.659861,40.1277291 155.942568,31.8269526 166.168287,30.9053619 Z M219.860241,26.5794349 L231.644592,25.5193924 C232.840477,25.4446004 243.204809,25.0822894 243.204809,34.9930069 C243.204809,45.105984 232.413126,46.4675428 231.582997,46.557318 L225.696383,47.0884462 L225.696383,62.0694652 L219.860241,62.5954462 L219.860241,26.5794349 Z M231.60448,31.5249284 L225.696383,32.0561224 L225.696383,41.0857777 L231.630812,40.5488835 C232.39586,40.4552738 237.368667,39.6865212 237.368667,35.518988 C237.368667,31.3001324 232.272627,31.4828425 231.60448,31.5249284 Z M57.0052717,41.2567035 L57.0052717,77.1701051 L51.1691295,77.6960861 L51.1691295,41.7826845 L57.0052717,41.2567035 Z M84.7283324,38.7581687 L84.7283324,44.2477887 L77.3957436,44.9086366 L77.3957436,75.3324183 L71.609483,75.8539037 L71.609483,45.4301221 L64.2768942,46.0909701 L64.2768942,40.6013501 L84.7283324,38.7581687 Z M101.316721,36.2370466 L115.283557,71.9177873 L108.998481,72.4842284 L107.452153,68.4678973 L95.1812897,69.5738062 L93.684843,73.8643667 L87.3997669,74.4308078 L101.316721,36.2370466 Z M101.316721,51.3719801 L97.0767889,64.2211839 L105.556654,63.456938 L101.316721,51.3719801 Z M209.500118,57.4751766 L209.500118,63.4265403 L186.454839,65.503491 L186.454839,59.5521273 L209.500118,57.4751766 Z M273.777778,21.7391304 L273.777778,27.5829982 L256.216999,29.1656596 L256.216999,37.9064875 L270.817532,36.5906176 L270.817532,42.3845378 L256.216999,43.7004077 L256.216999,52.4412356 L273.777778,50.8585742 L273.777778,56.702442 L250.346682,58.8141645 L250.346682,23.8508529 L273.777778,21.7391304 Z M198.127124,28.0250788 C205.260186,27.3822131 211.096328,32.8589006 211.096328,40.1954955 C211.096328,47.5320904 205.260186,54.0607399 198.127124,54.7036057 C190.994061,55.3464714 185.157919,49.8697839 185.157919,42.533189 C185.157919,35.1965941 190.994061,28.6679445 198.127124,28.0250788 Z M198.127124,33.9764425 C194.136599,34.3360876 190.944179,37.9073147 190.944179,42.0117035 C190.944179,46.1160922 194.136599,49.1118871 198.127124,48.752242 C202.117648,48.3925968 205.310068,44.8213697 205.310068,40.7169809 C205.310068,36.6125922 202.117648,33.6167973 198.127124,33.9764425 Z" id="Combined-Shape" fill="#000000"></path>
                <path d="M19.1184095,39.9378888 L26.7502876,60.4389744 L34.4320474,38.5577505 L40.7171235,37.9913094 L26.7502876,76.0869565 L12.8333333,40.5043299 L19.1184095,39.9378888 Z M126.397011,29.7563797 C132.269553,29.2271181 136.819888,32.7996864 137.153453,38.6084173 L137.171427,39.0976145 L131.385166,39.6191 C131.285403,36.6524093 129.040733,35.5207833 126.397011,35.7590482 C123.653525,36.0063043 121.309092,37.8593513 121.309092,41.1941672 C121.309092,44.169849 123.80317,45.5355214 126.397011,45.3017521 C126.646418,45.2792743 129.090615,45.0589916 131.584693,46.0142251 C135.275928,47.4259186 137.27119,50.8374362 137.27119,55.0957395 C137.27119,61.9705907 132.033627,66.1878797 126.397011,66.6958784 C120.524469,67.0753853 115.832469,64.0943664 115.491246,57.7506434 L115.47295,57.2142157 L121.309092,56.6882347 C121.408855,59.6549254 123.80317,60.9269792 126.397011,60.6932099 C129.090615,60.4504494 131.484929,58.4389922 131.484929,55.617225 C131.484929,52.5902383 128.741444,50.9905194 126.397011,51.0992012 C126.097721,51.1261746 123.703407,51.3419617 121.159447,50.3912237 C117.518094,48.9750347 115.47295,45.9784515 115.47295,41.7201482 C115.47295,34.8966019 120.760395,30.2643785 126.397011,29.7563797 Z M161.890509,26.5575358 C166.509088,26.1412874 170.673168,27.5891252 173.775371,30.3310819 L174.211254,30.7315319 L170.120966,35.3071667 C168.025941,33.3411763 165.082929,32.2724883 161.890509,32.5602044 C154.707565,33.2075657 150.317988,38.836271 150.317988,46.0702562 C150.317988,53.7659851 155.455789,58.0742939 161.890509,57.4943661 C164.883403,57.2246322 167.65709,55.802258 169.718358,53.6944333 L170.120966,53.2638675 L174.211254,57.1535345 C171.068716,60.6689612 166.72902,63.0609649 161.890509,63.4970346 C152.263369,64.3646785 144.382083,57.8922974 144.382083,46.6052283 C144.382083,35.779903 151.66479,27.4791265 161.890509,26.5575358 Z M215.582463,22.2316088 L227.366815,21.1715663 C228.562699,21.0967743 238.927031,20.7344633 238.927031,30.6451809 C238.927031,40.758158 228.135348,42.1197167 227.305219,42.2094919 L221.418605,42.7406202 L221.418605,57.7216391 L215.582463,58.2476201 L215.582463,22.2316088 Z M227.326702,27.1771024 L221.418605,27.7082963 L221.418605,36.7379516 L227.353034,36.2010574 C228.118082,36.1074478 233.090889,35.3386951 233.090889,31.1711619 C233.090889,26.9523063 227.994849,27.1350164 227.326702,27.1771024 Z M52.7274939,36.9088774 L52.7274939,72.822279 L46.8913518,73.34826 L46.8913518,37.4348585 L52.7274939,36.9088774 Z M80.4505546,34.4103426 L80.4505546,39.8999626 L73.1179658,40.5608105 L73.1179658,70.9845922 L67.3317052,71.5060776 L67.3317052,41.082296 L59.9991164,41.743144 L59.9991164,36.253524 L80.4505546,34.4103426 Z M97.0389434,31.8892205 L111.005779,67.5699612 L104.720703,68.1364024 L103.174375,64.1200712 L90.9035119,65.2259801 L89.4070652,69.5165406 L83.1219891,70.0829817 L97.0389434,31.8892205 Z M97.0389434,47.024154 L92.7990111,59.8733578 L101.278876,59.1091119 L97.0389434,47.024154 Z M205.222341,53.1273505 L205.222341,59.0787142 L182.177061,61.1556649 L182.177061,55.2043012 L205.222341,53.1273505 Z M269.5,17.3913043 L269.5,23.2351721 L251.939221,24.8178335 L251.939221,33.5586614 L266.539754,32.2427915 L266.539754,38.0367117 L251.939221,39.3525816 L251.939221,48.0934095 L269.5,46.5107482 L269.5,52.3546159 L246.068904,54.4663384 L246.068904,19.5030268 L269.5,17.3913043 Z M193.849346,23.6772527 C200.982408,23.034387 206.81855,28.5110745 206.81855,35.8476694 C206.81855,43.1842643 200.982408,49.7129139 193.849346,50.3557796 C186.716283,50.9986453 180.880141,45.5219578 180.880141,38.1853629 C180.880141,30.848768 186.716283,24.3201184 193.849346,23.6772527 Z M193.849346,29.6286164 C189.858821,29.9882615 186.666402,33.5594887 186.666402,37.6638774 C186.666402,41.7682662 189.858821,44.764061 193.849346,44.4044159 C197.83987,44.0447707 201.03229,40.4735436 201.03229,36.3691549 C201.03229,32.2647661 197.83987,29.2689712 193.849346,29.6286164 Z" id="Combined-Shape" fill="#FFFFFF"></path>
                <path d="M299.71611,13.817846 L297.305556,13.817846 L302.643212,1.08695652 L308,13.817846 L305.589445,13.817846 L304.996372,12.3856209 L300.290052,12.3856209 L299.71611,13.817846 Z M304.26938,10.59976 L302.643212,6.30308484 L301.017044,10.59976 L304.26938,10.59976 Z M300.89269,32.762622 L298.654318,32.762622 L298.654318,20.3853683 L303.111931,20.3853683 C303.111931,20.3853683 307.588675,20.3853683 307.588675,23.9924537 C307.588675,25.990496 306.211215,26.8745856 305.005938,27.2812668 L307.741726,32.762622 L305.273778,32.762622 L302.710172,27.599539 L300.89269,27.599539 L300.89269,32.762622 Z M303.14045,25.5479902 C303.400432,25.5415357 305.350303,25.4447181 305.350303,23.9924537 C305.350303,22.4541379 303.111931,22.4541379 303.111931,22.4541379 L300.89269,22.4541379 L300.89269,25.5484513 L303.14045,25.5479902 Z M304.020672,51.9852546 L301.801431,51.9852546 L301.801431,41.4999526 L298.989117,41.4999526 L298.989117,39.608001 L306.832985,39.608001 L306.832985,41.4999526 L304.020672,41.4999526 L304.020672,51.9852546 Z M302.920617,70.6521739 C300.60572,70.5991285 298.769107,69.3614032 298.730844,67.0450886 L300.969216,67.0450886 C301.007479,68.0706324 301.925785,68.5834044 302.920617,68.5834044 C303.953712,68.5834044 304.872018,67.9645417 304.872018,66.9920432 C304.872018,65.9488175 303.819792,65.3122731 302.920617,65.2769095 C302.805829,65.2769095 301.887522,65.2769095 300.911822,64.8702283 C299.515231,64.2690474 298.730844,63.1727764 298.730844,61.7051877 C298.730844,59.3535095 300.758771,57.9212845 302.920617,57.9212845 C305.235515,57.9212845 307.014734,59.3711913 307.052996,61.4753244 L304.833756,61.4753244 C304.795493,60.4497806 303.934581,59.990054 302.920617,59.990054 C301.868391,59.990054 300.969216,60.5558713 300.969216,61.7051877 C300.969216,62.7307316 301.925785,63.2788671 302.920617,63.2788671 C303.016274,63.2788671 303.953712,63.2788671 304.910281,63.6855483 C306.326004,64.2867292 307.091259,65.5244545 307.091259,66.9920432 C307.091259,69.3614032 305.082464,70.6521739 302.920617,70.6521739 Z" id="Combined-Shape" fill="#FFFFFF" fill-rule="nonzero"></path>
            </g>
        </g>
    </g>
</svg>